<svg id="Layer_1" data-name="Layer 1" xmlns="http://www.w3.org/2000/svg" viewBox="0 0 1080 1080"><defs><style>.cls-1,.cls-2{fill:#191919;stroke:#191919;}.cls-1,.cls-2,.cls-3{stroke-miterlimit:10;}.cls-2,.cls-3{stroke-width:2px;}.cls-3{fill:#00006a;stroke:#00006a;}</style></defs><title>Artboard 1</title><path class="cls-1" d="M46.2,482.78h0a21.46,21.46,0,0,1-20.76-26.92l2.42-9.22H46.2V422.16a27.32,27.32,0,0,1,27.49-27.33l14.59.1v51.71h0a21.64,21.64,0,0,1,21,27.07l-2.35,9.07H88.28v44.73c0,12,.49,17.41,15.44,17.41,3.63,0-2.15.57.31.36a5.35,5.35,0,0,1,5.83,5.37l-.21,35a41.07,41.07,0,0,1-6.46.53q-18.87,0-31.4-6.07a41.16,41.16,0,0,1-19.13-18.33q-6.46-12.13-6.46-31Z"/><path class="cls-1" d="M827.33,482.78h0a21.46,21.46,0,0,1-20.76-26.92l2.42-9.22h18.34V422.16a27.33,27.33,0,0,1,27.49-27.33l14.59.1v51.71h0a21.65,21.65,0,0,1,21,27.07L888,482.78h-18.6v44.73c0,12,.49,17.41,15.45,17.41,3.62,0-2.16.57.31.36a5.36,5.36,0,0,1,5.83,5.37l-.22,35a41,41,0,0,1-6.46.53q-18.87,0-31.4-6.07a41.16,41.16,0,0,1-19.13-18.33q-6.46-12.13-6.46-31Z"/><path class="cls-2" d="M336.79,489.29a16.49,16.49,0,0,0-8.58-2.5h-2.37q-16.11.66-16.1,22.42v37.73a42.21,42.21,0,0,1-42.21,42.22h0V509.21q0-57.65,58.31-60.55h2.37c1.29,0,2.57.11,3.84.22a5.22,5.22,0,0,1,4.74,5.21Z"/><path class="cls-3" d="M454.17,582.77q-4.21,1.85-6.2,2.5a80.36,80.36,0,0,1-29.28,5.41,81.27,81.27,0,0,1-38.13-9.36,74.93,74.93,0,0,1-28.49-25.86,69.7,69.7,0,0,1-4.49-65.83,71.88,71.88,0,0,1,17-22.95,73.78,73.78,0,0,1,24.8-14.91,81.07,81.07,0,0,1,29.29-5.41A83.59,83.59,0,0,1,448,451.64a73.92,73.92,0,0,1,24.81,15,72.17,72.17,0,0,1,17.15,22.95,67.37,67.37,0,0,1,6.2,28.76L496,573.33A13.69,13.69,0,0,1,482.2,587l-28-.27Zm-65.82-81.4a31.37,31.37,0,0,0-4.89,17q0,14,10.56,24.14a35.51,35.51,0,0,0,49.47,0Q454,532.38,454,518.39a31.45,31.45,0,0,0-4.88-17A36.07,36.07,0,0,0,436.1,489a35.75,35.75,0,0,0-34.69,0A36,36,0,0,0,388.35,501.37Z"/><path class="cls-3" d="M548.1,401h0v55.67l3-1.32,3-1.32a85.62,85.62,0,0,1,58.44,0,76.69,76.69,0,0,1,24.94,15.17,70.51,70.51,0,0,1,17,23.09,70.1,70.1,0,0,1,.14,57.38,73.21,73.21,0,0,1-17.15,23.22,75.49,75.49,0,0,1-24.94,15.17A81.56,81.56,0,0,1,545.2,584a73.49,73.49,0,0,1-28.49-25.85A65.93,65.93,0,0,1,506,521.88V443.25A42.21,42.21,0,0,1,548.1,401Zm10.56,144.19a35.19,35.19,0,0,0,49.47,0q10.54-10.15,10.55-24.28a30.79,30.79,0,0,0-4.88-16.88,36.07,36.07,0,0,0-13.06-12.4,34.87,34.87,0,0,0-34.69,0A36.1,36.1,0,0,0,553,504.07,30.79,30.79,0,0,0,548.1,521Q548.1,535.08,558.66,545.23Z"/><path class="cls-2" d="M755.18,581.78A78.17,78.17,0,0,1,733,587.59q-62.4,6.6-62.4-59.5V484.81a35.47,35.47,0,0,1,35.48-35.47h6.73v75.85q0,12,5.55,18.21t15.56,6.06q9.63,0,15.44-6.2,5.54-6.19,5.54-18.07v-37a38.87,38.87,0,0,1,38.76-38.88h3.45V600.25q0,24.54-17.41,42.22-7.92,7.9-21.77,12.93a74.28,74.28,0,0,1-25.2,4.48h-7q-28.23-.52-45.25-17.41-11.07-11.36-13.72-20.32l15.51-9.07a25.34,25.34,0,0,1,30.26,3.53l.14.13a25.07,25.07,0,0,0,31.53,2.38,24.83,24.83,0,0,0,9.1-11.35l.14-.39.26-.66.26-.93.27-.92a9.21,9.21,0,0,0,.66-3,2.06,2.06,0,0,1,.13-.66v-1.32h.13Z"/><path class="cls-2" d="M997.83,552.31a24.33,24.33,0,0,1,8.84-8.57,23.34,23.34,0,0,1,23.49,0,25.8,25.8,0,0,1,8.7,8.71,21.42,21.42,0,0,1,3.3,11.6q0,10.56-6.86,17.42a24.06,24.06,0,0,1-28.89,3.82,22.75,22.75,0,0,1-8.71-8.83,25.53,25.53,0,0,1-3.16-12.41A21.71,21.71,0,0,1,997.83,552.31Z"/><path class="cls-1" d="M196.27,550.09h0a8.73,8.73,0,0,1,8.58,8.76l-.11,28.47c-8.33,1.46-10.94,1.17-20.61,1.17a74.58,74.58,0,0,1-36.54-9.87,71.84,71.84,0,0,1-27.31-26,71.72,71.72,0,0,1-4.36-65.57,71.16,71.16,0,0,1,16.36-22.95A72.5,72.5,0,0,1,156,448.94a76.92,76.92,0,0,1,28.1-5.28,76,76,0,0,1,28,5.28A73,73,0,0,1,236,464a70.3,70.3,0,0,1,22.3,51.58v1.19a9.85,9.85,0,0,1-.13,1.45l-.27,2.24-16.36.26H150.75a33.06,33.06,0,0,0,9.63,19.13c6.77,6.69,26.83,10.26,35.89,10.26m-12.14-68.3a32.7,32.7,0,0,0-16.62,4.48,39.1,39.1,0,0,0-9.24,8.18H210a39.07,39.07,0,0,0-9.23-8.18A32.75,32.75,0,0,0,184.13,481.79Z"/><path class="cls-1" d="M977.35,550.09h0a8.73,8.73,0,0,1,8.58,8.76l-.11,28.47c-8.33,1.46-10.94,1.17-20.61,1.17a74.58,74.58,0,0,1-36.54-9.87,71.84,71.84,0,0,1-27.31-26A71.72,71.72,0,0,1,897,487.06a71.16,71.16,0,0,1,16.36-22.95,72.5,72.5,0,0,1,23.75-15.17,76.92,76.92,0,0,1,28.1-5.28,75.93,75.93,0,0,1,28,5.28,73,73,0,0,1,23.87,15,70.3,70.3,0,0,1,22.3,51.58v1.19a9.85,9.85,0,0,1-.13,1.45l-.27,2.24-16.36.26H931.83a33.06,33.06,0,0,0,9.63,19.13c6.77,6.69,26.83,10.26,35.89,10.26m-12.14-68.3a32.73,32.73,0,0,0-16.62,4.48,39.1,39.1,0,0,0-9.24,8.18h51.71a39.07,39.07,0,0,0-9.23-8.18A32.75,32.75,0,0,0,965.21,481.79Z"/></svg>